<svg width="24" height="24" viewBox="0 0 24 24" fill="none" xmlns="http://www.w3.org/2000/svg">
<path fill-rule="evenodd" clip-rule="evenodd" d="M12.8998 3.9C12.8998 3.40294 12.4969 3 11.9998 3C11.5028 3 11.0998 3.40294 11.0998 3.9V12.5272L8.13621 9.56363C7.78474 9.21215 7.21489 9.21215 6.86342 9.56363C6.51195 9.9151 6.51195 10.4849 6.86342 10.8364L11.3634 15.3364C11.7149 15.6879 12.2847 15.6879 12.6362 15.3364L17.1362 10.8364C17.4877 10.4849 17.4877 9.9151 17.1362 9.56363C16.7847 9.21215 16.2149 9.21215 15.8634 9.56363L12.8998 12.5272V3.9ZM3.9 13.8C4.39706 13.8 4.8 14.203 4.8 14.7V18.3C4.8 18.5387 4.89482 18.7676 5.0636 18.9364C5.23239 19.1052 5.46131 19.2 5.7 19.2H18.3C18.5387 19.2 18.7676 19.1052 18.9364 18.9364C19.1052 18.7676 19.2 18.5387 19.2 18.3V14.7C19.2 14.203 19.6029 13.8 20.1 13.8C20.5971 13.8 21 14.203 21 14.7V18.3C21 19.0161 20.7155 19.7029 20.2092 20.2092C19.7028 20.7156 19.0161 21 18.3 21H5.7C4.98392 21 4.29716 20.7156 3.79081 20.2092C3.28446 19.7029 3 19.0161 3 18.3V14.7C3 14.203 3.40294 13.8 3.9 13.8Z" fill="#78C6C2"/>
</svg>
