<svg width="64" height="64" viewBox="0 0 64 64" fill="none" xmlns="http://www.w3.org/2000/svg">
<path d="M17.4602 2.69359C15.6472 2.69359 16.4179 2.65971 13.8669 2.85884C11.1712 3.06921 8.69804 4.32221 6.94066 6.30022C5.98641 7.37422 4.50391 7.80871 3.13541 7.37134L1.87479 6.96846C1.87479 6.96846 1.23079 20.4542 5.12216 22.1505H30.0039V15.2343C30.004 8.30746 24.3872 2.69384 17.4602 2.69359Z" fill="#D77F4A"/>
<path d="M11.0532 37.2129V37.209H7.2462C4.34983 37.209 2.00195 39.557 2.00195 42.4532V51.1729H30.0043V42.4532C30.0043 39.5569 27.6563 37.209 24.7601 37.209H20.9531V37.2129H11.0532Z" fill="#3C87D0"/>
<path d="M11.0347 33.2588V37.2137C11.0347 39.9474 13.2508 42.1635 15.9845 42.1635C18.7183 42.1635 20.9344 39.9474 20.9344 37.2137C20.9344 35.8274 20.9344 34.598 20.9344 33.2588H11.0347Z" fill="#FFB09E"/>
<path d="M11.0347 37.2137C11.0347 37.4425 11.0515 37.6673 11.0815 37.888C12.5832 38.563 14.2513 38.9393 16.0084 38.9393C17.7458 38.9393 19.396 38.5714 20.8844 37.9107C20.9165 37.6828 20.9342 37.4503 20.9342 37.2137C20.9342 35.8274 20.9342 34.5979 20.9342 33.2588H11.0347V37.2137Z" fill="#FFA78F"/>
<path d="M10.1718 27.0961H4.05237C1.81437 27.0961 0 25.2818 0 23.0437C0 20.8056 1.81437 18.9913 4.05237 18.9913H10.1718V27.0961Z" fill="#FFB09E"/>
<path d="M21.834 18.9913H27.9533C30.1915 18.9913 32.0057 20.8057 32.0057 23.0437C32.0057 25.2818 30.1913 27.0961 27.9533 27.0961H21.834V18.9913Z" fill="#FFA78F"/>
<path d="M4.09229 20.8117V25.277C4.09229 31.7837 9.42741 37.0584 16.0088 37.0584C22.59 37.0584 27.9253 31.7837 27.9253 25.277V20.8117C27.9253 14.305 22.5902 9.03027 16.0088 9.03027C9.42741 9.03027 4.09229 14.305 4.09229 20.8117Z" fill="#FFCEBF"/>
<path d="M9.03064 29.2236H6.96039C6.34039 29.2236 5.83789 28.7211 5.83789 28.1011C5.83789 27.4811 6.34039 26.9786 6.96039 26.9786H9.03077C9.65077 26.9786 10.1533 27.4811 10.1533 28.1011C10.1533 28.7211 9.65077 29.2236 9.03064 29.2236Z" fill="#FE8F83"/>
<path d="M16.4111 9.03809C15.9569 9.05096 15.5085 9.08671 15.0684 9.14859C20.8477 9.96134 25.292 14.8727 25.292 20.8111V25.2765C25.292 31.2148 20.8477 36.1262 15.0684 36.939C15.5085 37.0008 15.9569 37.0367 16.4111 37.0495C22.806 36.8396 27.9254 31.6498 27.9254 25.2765V20.8111C27.9252 14.4377 22.806 9.24796 16.4111 9.03809Z" fill="#FFB09E"/>
<path d="M17.9584 2.70679H15.8529C15.5104 2.72579 15.04 2.76804 13.8674 2.85954C11.2608 3.06316 8.86266 4.24141 7.11816 6.10716V11.342C7.11816 15.567 10.5432 18.9919 14.768 18.9919H30.0043V15.2349C30.0044 8.47491 24.6548 2.96691 17.9584 2.70679Z" fill="#D77F4A"/>
<path d="M17.9582 2.70691H15.8527C15.5642 2.72291 15.1834 2.75553 14.3701 2.82016C20.4629 3.67553 25.1515 8.90653 25.1515 15.2352V18.9922H30.0044V15.2352C30.0042 8.47491 24.6546 2.96691 17.9582 2.70691Z" fill="#C86D36"/>
<path d="M24.7597 37.2091H20.9527V37.213H20.7729C23.5991 37.2932 25.8659 39.6079 25.8659 42.4535V51.1731H30.0041V42.4535C30.0041 39.557 27.6561 37.2091 24.7597 37.2091Z" fill="#0078C8"/>
<path d="M25.0088 29.2236H22.9384C22.3184 29.2236 21.8159 28.7211 21.8159 28.1011C21.8159 27.4811 22.3184 26.9786 22.9384 26.9786H25.0088C25.6288 26.9786 26.1313 27.4811 26.1313 28.1011C26.1313 28.7211 25.6288 29.2236 25.0088 29.2236Z" fill="#FE8F83"/>
<path d="M15.9846 32.2951C14.0368 32.2951 12.4521 30.7105 12.4521 28.7627C12.4521 28.213 12.8978 27.7673 13.4475 27.7673C13.9973 27.7673 14.4429 28.213 14.4429 28.7627C14.4429 29.6127 15.1345 30.3045 15.9848 30.3045C16.8348 30.3045 17.5265 29.6128 17.5265 28.7627C17.5265 28.213 17.9721 27.7673 18.5219 27.7673C19.0716 27.7673 19.5173 28.213 19.5173 28.7627C19.517 30.7105 17.9324 32.2951 15.9846 32.2951Z" fill="#FFA799"/>
<path d="M21.8157 26.0227C21.2659 26.0227 20.8203 25.577 20.8203 25.0273V22.8274C20.8203 22.2777 21.2659 21.832 21.8157 21.832C22.3654 21.832 22.8111 22.2777 22.8111 22.8274V25.0273C22.8111 25.577 22.3656 26.0227 21.8157 26.0227Z" fill="#5A5A5A"/>
<path d="M10.1536 26.0227C9.60383 26.0227 9.1582 25.577 9.1582 25.0273V22.8274C9.1582 22.2777 9.60383 21.832 10.1536 21.832C10.7033 21.832 11.149 22.2777 11.149 22.8274V25.0273C11.1488 25.577 10.7033 26.0227 10.1536 26.0227Z" fill="#5A5A5A"/>
<path d="M38.7896 37.9547H38.2749C35.4797 37.9547 33.2139 40.2206 33.2139 43.0157V51.3091H59.0247V43.0157C59.0247 40.2206 56.7589 37.9547 53.9637 37.9547H38.7896Z" fill="#F07281"/>
<path d="M53.964 37.9547H49.8188C52.614 37.9547 54.8798 40.2206 54.8798 43.0157V51.3091H59.025V43.0157C59.025 40.2205 56.7591 37.9547 53.964 37.9547Z" fill="#EB5569"/>
<path d="M46.1025 43.2851C43.668 43.2851 41.6943 41.3114 41.6943 38.8769V28.2686H50.5106V38.8768C50.5105 41.3114 48.537 43.2851 46.1025 43.2851Z" fill="#FFB09E"/>
<path d="M41.6943 38.2492C43.0366 38.8543 44.5272 39.1941 46.099 39.1941C47.6735 39.1941 49.1665 38.8531 50.5106 38.2461V28.2686H41.6943V38.2492Z" fill="#FFA78F"/>
<path d="M61.7968 39.3073H63.9998V33.2414C63.9998 29.6988 61.1279 26.8269 57.5853 26.8269H55.3823V32.8928C55.3823 36.4354 58.2542 39.3073 61.7968 39.3073Z" fill="#5A5A5A"/>
<path d="M57.5853 26.8269H55.3823V27.0114C58.1872 27.6969 60.2692 30.2254 60.2692 33.2414V39.1228C60.7589 39.2424 61.2702 39.3073 61.7968 39.3073H63.9998V33.2414C63.9998 29.6986 61.1279 26.8269 57.5853 26.8269Z" fill="#444444"/>
<path d="M30.3759 39.3073H28.1729V33.2414C28.1729 29.6988 31.0447 26.8269 34.5874 26.8269H36.7904V32.8928C36.7904 36.4354 33.9185 39.3073 30.3759 39.3073Z" fill="#5A5A5A"/>
<path d="M40.9098 28.269H35.4462C33.4515 28.269 31.8345 26.652 31.8345 24.6573C31.8345 22.6625 33.4515 21.0455 35.4462 21.0455H40.9098V28.269Z" fill="#FFB09E"/>
<path d="M51.2627 21.0455H56.7263C58.7211 21.0455 60.3381 22.6625 60.3381 24.6573C60.3381 26.652 58.7211 28.269 56.7263 28.269H51.2627V21.0455Z" fill="#FFA78F"/>
<path d="M46.0992 12.1832C40.2322 12.1832 35.4761 16.8806 35.4761 22.6752V23.3845V26.6471C35.4761 32.4418 40.2322 37.1391 46.0992 37.1391C51.9662 37.1391 56.7223 32.4418 56.7223 26.6471V22.6752C56.7223 16.8806 51.9662 12.1832 46.0992 12.1832Z" fill="#FFCEBF"/>
<path d="M46.0995 12.1832C45.54 12.1832 44.9907 12.2266 44.4546 12.3089C49.5405 13.0897 53.4328 17.4332 53.4328 22.6752V26.6471C53.4328 31.8891 49.5403 36.2326 44.4546 37.0135C44.9907 37.0958 45.54 37.1391 46.0995 37.1391C51.9665 37.1391 56.7226 32.4418 56.7226 26.6471V22.6752C56.7226 16.8806 51.9665 12.1832 46.0995 12.1832Z" fill="#FFB09E"/>
<path d="M40.1478 30.5454H38.1257C37.5202 30.5454 37.0293 30.0547 37.0293 29.449C37.0293 28.8434 37.5201 28.3527 38.1257 28.3527H40.1478C40.7533 28.3527 41.2442 28.8434 41.2442 29.449C41.2442 30.0547 40.7533 30.5454 40.1478 30.5454Z" fill="#FE8F83"/>
<path d="M54.1136 30.5454H52.0915C51.4859 30.5454 50.9951 30.0547 50.9951 29.449C50.9951 28.8434 51.4859 28.3527 52.0915 28.3527H54.1136C54.7191 28.3527 55.21 28.8434 55.21 29.449C55.21 30.0547 54.7191 30.5454 54.1136 30.5454Z" fill="#FE8F83"/>
<path d="M47.2124 6.05652C46.5904 6.05652 46.0863 6.56064 46.0861 7.18264C46.0861 6.56064 45.5819 6.05652 44.9599 6.05652C38.2478 6.05652 32.8066 11.4978 32.8066 18.2098V21.0454H39.8984C43.3158 21.0454 46.086 18.2751 46.0861 14.8579C46.0863 18.2751 48.8565 21.0454 52.2739 21.0454H59.3658V18.2098C59.3656 11.4978 53.9245 6.05652 47.2124 6.05652Z" fill="#5A5A5A"/>
<path d="M47.2127 6.05664C46.89 6.05664 46.5998 6.19302 46.3945 6.41039C51.6997 7.71551 55.6354 12.502 55.6354 18.2099V21.0455H59.366V18.2099C59.3659 11.4978 53.9248 6.05664 47.2127 6.05664Z" fill="#444444"/>
<path d="M46.1197 33.2425C44.3258 33.2425 42.8662 31.7829 42.8662 29.989C42.8662 29.388 43.3533 28.901 43.9542 28.901C44.5551 28.901 45.0422 29.388 45.0422 29.989C45.0422 30.5831 45.5256 31.0665 46.1197 31.0665C46.7138 31.0665 47.1972 30.5831 47.1972 29.989C47.1972 29.388 47.6843 28.901 48.2852 28.901C48.8861 28.901 49.3732 29.388 49.3732 29.989C49.3732 31.783 47.9137 33.2425 46.1197 33.2425Z" fill="#FFA799"/>
<path d="M51.0968 27.9178C50.4959 27.9178 50.0088 27.4308 50.0088 26.8298V24.8956C50.0088 24.2946 50.4959 23.8076 51.0968 23.8076H51.9283C52.5292 23.8076 53.0163 24.2946 53.0163 24.8956C53.0163 25.4081 52.6619 25.8379 52.1848 25.9531V26.8298C52.1848 27.4308 51.6977 27.9178 51.0968 27.9178Z" fill="#5A5A5A"/>
<path d="M41.1426 27.9178C40.5418 27.9178 40.0546 27.4308 40.0546 26.8298V25.9531C39.5775 25.8378 39.2231 25.4081 39.2231 24.8956C39.2231 24.2946 39.7103 23.8076 40.3111 23.8076H41.1426C41.7435 23.8076 42.2306 24.2946 42.2306 24.8956V26.8298C42.2306 27.4308 41.7435 27.9178 41.1426 27.9178Z" fill="#5A5A5A"/>
<path d="M43.25 52C43.25 58.2022 38.2025 63.25 32 63.25C31.6014 63.25 31.207 63.2288 30.8193 63.1886C25.1691 62.5958 20.75 57.8023 20.75 52C20.75 46.1978 25.169 41.4042 30.8192 40.8114C31.2069 40.7712 31.6013 40.75 32 40.75C38.2025 40.75 43.25 45.7978 43.25 52Z" fill="#09EAA3" stroke="white" stroke-width="1.5"/>
<path d="M27.1098 53.1098H30.8901V56.8902C30.8901 57.5031 31.387 58 31.9999 58C32.6129 58 33.1098 57.5031 33.1098 56.8902V53.1098H36.89C37.5029 53.1098 37.9999 52.6129 37.9999 51.9999C37.9999 51.387 37.5029 50.8901 36.89 50.8901H33.1098V47.1098C33.1098 46.4969 32.6129 46 31.9999 46C31.387 46 30.8901 46.4969 30.8901 47.1098V50.8901H27.1098C26.4969 50.8901 26 51.387 26 51.9999C26 52.6129 26.4969 53.1098 27.1098 53.1098Z" fill="white"/>
</svg>
