<svg width="32" height="32" viewBox="0 0 32 32" fill="none" xmlns="http://www.w3.org/2000/svg">
<path d="M20.5363 3.4886L17.8661 3.1006L16.672 0.681158C16.61 0.555659 16.5142 0.449991 16.3954 0.376105C16.2765 0.302219 16.1394 0.263062 15.9994 0.263062C15.8595 0.263062 15.7223 0.302219 15.6034 0.376105C15.4846 0.449991 15.3888 0.555659 15.3268 0.681158L14.1327 3.1006L11.4625 3.4886C11.3241 3.50873 11.194 3.5672 11.087 3.65741C10.98 3.74762 10.9004 3.86595 10.8571 3.99905C10.8139 4.13214 10.8088 4.27467 10.8423 4.41053C10.8758 4.54639 10.9467 4.67016 11.0469 4.76785L12.979 6.65122L12.5228 9.31066C12.4991 9.44859 12.5146 9.59038 12.5673 9.72001C12.62 9.84964 12.708 9.96193 12.8212 10.0442C12.9344 10.1264 13.0684 10.1754 13.208 10.1854C13.3476 10.1955 13.4872 10.1663 13.611 10.1012L15.9994 8.84566L18.3876 10.1012C18.5115 10.1663 18.6511 10.1955 18.7907 10.1854C18.9303 10.1754 19.0643 10.1264 19.1775 10.0442C19.2907 9.96193 19.3787 9.84964 19.4314 9.72001C19.4841 9.59038 19.4995 9.44859 19.4759 9.31066L19.0196 6.65122L20.9519 4.76785C21.0521 4.67016 21.123 4.54639 21.1565 4.41053C21.1901 4.27467 21.1849 4.13214 21.1417 3.99905C21.0984 3.86595 21.0188 3.74762 20.9118 3.65741C20.8048 3.5672 20.6748 3.50873 20.5363 3.4886Z" fill="#F4C027"/>
<path d="M31.44 11.3995L29.2813 9.78071L29.391 7.08465C29.3967 6.94479 29.3631 6.80612 29.2941 6.68433C29.2251 6.56255 29.1234 6.46251 29.0005 6.39552C28.8776 6.32854 28.7384 6.29729 28.5986 6.30531C28.4589 6.31333 28.3242 6.3603 28.2097 6.4409L26.0034 7.99371L23.4732 7.05621C23.3419 7.00761 23.1997 6.99668 23.0626 7.02467C22.9255 7.05266 22.799 7.11845 22.6973 7.21459C22.5957 7.31074 22.5229 7.43342 22.4873 7.56875C22.4517 7.70408 22.4547 7.84667 22.4959 7.9804L23.2909 10.5589L21.6175 12.6756C21.5307 12.7854 21.4763 12.9172 21.4606 13.0563C21.4448 13.1953 21.4683 13.336 21.5283 13.4624C21.5884 13.5889 21.6826 13.696 21.8003 13.7716C21.918 13.8473 22.0545 13.8885 22.1945 13.8906L24.8924 13.9313L26.3884 16.1769C26.4568 16.2797 26.5496 16.364 26.6585 16.4223C26.7673 16.4806 26.8889 16.5111 27.0124 16.5111C27.0447 16.5111 27.077 16.509 27.1091 16.5049C27.2479 16.4869 27.3789 16.4304 27.4872 16.3418C27.5956 16.2532 27.677 16.1361 27.7222 16.0036L28.5947 13.4503L31.1926 12.7215C31.3274 12.6837 31.4488 12.609 31.5433 12.5057C31.6378 12.4025 31.7015 12.2749 31.7272 12.1373C31.753 11.9998 31.7397 11.8578 31.6889 11.7274C31.6382 11.597 31.5519 11.4834 31.44 11.3994V11.3995Z" fill="#F4C027"/>
<path d="M8.70927 10.559L9.50421 7.98046C9.54543 7.84673 9.54842 7.70413 9.51284 7.56879C9.47725 7.43345 9.40451 7.31076 9.30284 7.2146C9.20117 7.11845 9.07462 7.05265 8.93751 7.02466C8.80039 6.99667 8.65818 7.0076 8.52696 7.05621L5.99677 7.99371L3.79052 6.4409C3.67608 6.3603 3.54136 6.31333 3.40161 6.30531C3.26186 6.29729 3.12266 6.32854 2.99975 6.39552C2.87684 6.46251 2.77513 6.56255 2.70612 6.68433C2.63711 6.80612 2.60356 6.94479 2.60927 7.08465L2.71896 9.78071L0.560269 11.3995C0.448316 11.4834 0.362086 11.597 0.311328 11.7274C0.260571 11.8578 0.247311 11.9998 0.273047 12.1374C0.298784 12.2749 0.36249 12.4026 0.456963 12.5058C0.551437 12.609 0.672908 12.6838 0.807644 12.7216L3.40558 13.4504L4.27789 16.0037C4.32314 16.1361 4.40454 16.2532 4.51289 16.3418C4.62123 16.4304 4.75219 16.4869 4.89096 16.5049C5.02974 16.523 5.17079 16.5018 5.29817 16.4438C5.42555 16.3859 5.53418 16.2935 5.61177 16.177L7.10777 13.9314L9.80564 13.8907C9.94557 13.8886 10.0821 13.8474 10.1998 13.7717C10.3176 13.696 10.4118 13.5889 10.4718 13.4625C10.5318 13.3361 10.5553 13.1954 10.5395 13.0563C10.5238 12.9173 10.4694 12.7854 10.3826 12.6756L8.70927 10.559Z" fill="#F4C027"/>
<path d="M26.5 21.0001C26.5 20.6023 26.342 20.2208 26.0607 19.9395C25.7794 19.6582 25.3978 19.5001 25 19.5001H19.5V16.0626C19.5 15.1275 19.5 13.2632 17.0467 13.0251C16.9774 13.0186 16.9075 13.0267 16.8414 13.0488C16.7754 13.0708 16.7147 13.1065 16.6632 13.1534C16.6117 13.2003 16.5706 13.2574 16.5425 13.3211C16.5144 13.3849 16.4999 13.4537 16.5 13.5234V16.9211C16.5 17.0137 16.4743 17.1044 16.4258 17.1831L15 19.5001H15.0625L12 21.5001L11.75 25.0518L12 29.5001C12 30.0306 12.2107 30.5393 12.5858 30.9144C12.9609 31.2894 13.4696 31.5001 14 31.5001H24C24.3978 31.5001 24.7794 31.3421 25.0607 31.0608C25.342 30.7795 25.5 30.398 25.5 30.0001C25.5 29.6023 25.342 29.2208 25.0607 28.9395C24.7794 28.6582 24.3978 28.5001 24 28.5001H24.5C24.8978 28.5001 25.2794 28.3421 25.5607 28.0608C25.842 27.7795 26 27.398 26 27.0001C26 26.6023 25.842 26.2208 25.5607 25.9395C25.2794 25.6582 24.8978 25.5001 24.5 25.5001H25C25.3978 25.5001 25.7794 25.3421 26.0607 25.0608C26.342 24.7795 26.5 24.398 26.5 24.0001C26.5 23.6023 26.342 23.2208 26.0607 22.9395C25.7794 22.6582 25.3978 22.5001 25 22.5001C25.3978 22.5001 25.7794 22.3421 26.0607 22.0608C26.342 21.7795 26.5 21.398 26.5 21.0001Z" fill="#FEC9A3"/>
<path d="M11.25 19.5H6.25C5.83579 19.5 5.5 19.8358 5.5 20.25V30.75C5.5 31.1642 5.83579 31.5 6.25 31.5H11.25C11.6642 31.5 12 31.1642 12 30.75V20.25C12 19.8358 11.6642 19.5 11.25 19.5Z" fill="#4398D1"/>
<path d="M8.875 30.3125C9.28921 30.3125 9.625 29.9767 9.625 29.5625C9.625 29.1483 9.28921 28.8125 8.875 28.8125C8.46079 28.8125 8.125 29.1483 8.125 29.5625C8.125 29.9767 8.46079 30.3125 8.875 30.3125Z" fill="#BFE8E5"/>
</svg>
