<svg width="24" height="24" viewBox="0 0 24 24" fill="none" xmlns="http://www.w3.org/2000/svg">
<path fill-rule="evenodd" clip-rule="evenodd" d="M10.1263 3C6.19056 3 3 6.19056 3 10.1263C3 14.062 6.19056 17.2526 10.1263 17.2526C14.062 17.2526 17.2526 14.062 17.2526 10.1263C17.2492 6.19196 14.0606 3.00341 10.1263 3ZM10.1263 14.7739C7.55951 14.7739 5.47871 12.6931 5.47871 10.1263C5.47871 7.55951 7.55951 5.47871 10.1263 5.47871C12.6931 5.47871 14.7739 7.55951 14.7739 10.1263C14.7705 12.6917 12.6917 14.7705 10.1263 14.7739ZM20.6154 18.7633L17.9907 16.1385C17.4779 15.6257 16.6465 15.6257 16.1337 16.1385C15.6209 16.6513 15.6209 17.4827 16.1337 17.9955L18.7584 20.6203C19.2712 21.1331 20.1026 21.1331 20.6154 20.6203C21.1282 20.1075 21.1282 19.2761 20.6154 18.7633ZM10.0004 7.50005C10.2765 7.49983 10.5002 7.27579 10.5 6.99965C10.4998 6.72351 10.2757 6.49983 9.9996 6.50005C9.14337 6.50073 8.27063 6.78558 7.60538 7.37672C6.93088 7.97609 6.5 8.86431 6.5 10C6.5 10.2762 6.72386 10.5 7 10.5C7.27614 10.5 7.5 10.2762 7.5 10C7.5 9.13574 7.81912 8.52456 8.26962 8.12424C8.72937 7.7157 9.35663 7.50056 10.0004 7.50005Z" fill="#2B4798"/>
</svg>
