<svg width="27" height="17" viewBox="0 0 27 17" fill="none" xmlns="http://www.w3.org/2000/svg">
<path fill-rule="evenodd" clip-rule="evenodd" d="M13.2103 14.7994C11.8173 15.9736 10.0104 16.6824 8.03587 16.6824C3.63014 16.6824 0.0585938 13.1534 0.0585938 8.80008C0.0585938 4.44677 3.63014 0.917725 8.03587 0.917725C10.0104 0.917725 11.8173 1.62655 13.2103 2.80072C14.6033 1.62655 16.4103 0.917725 18.3848 0.917725C22.7905 0.917725 26.3621 4.44677 26.3621 8.80008C26.3621 13.1534 22.7905 16.6824 18.3848 16.6824C16.4103 16.6824 14.6033 15.9736 13.2103 14.7994Z" fill="#ED0006"/>
<path fill-rule="evenodd" clip-rule="evenodd" d="M13.2104 14.7994C14.9257 13.3537 16.0133 11.2024 16.0133 8.80008C16.0133 6.39778 14.9257 4.24648 13.2104 2.80071C14.6034 1.62654 16.4104 0.917725 18.3849 0.917725C22.7906 0.917725 26.3622 4.44677 26.3622 8.80008C26.3622 13.1534 22.7906 16.6824 18.3849 16.6824C16.4104 16.6824 14.6034 15.9736 13.2104 14.7994Z" fill="#F9A000"/>
<path fill-rule="evenodd" clip-rule="evenodd" d="M13.2105 14.7995C14.9257 13.3537 16.0133 11.2024 16.0133 8.80012C16.0133 6.39783 14.9257 4.24655 13.2105 2.80078C11.4953 4.24655 10.4077 6.39783 10.4077 8.80012C10.4077 11.2024 11.4953 13.3537 13.2105 14.7995Z" fill="#FF5E00"/>
</svg>
