<svg width="28" height="28" viewBox="0 0 28 28" fill="none" xmlns="http://www.w3.org/2000/svg">
<path fill-rule="evenodd" clip-rule="evenodd" d="M2.33337 5.00711C2.33337 3.5303 3.53018 2.3335 5.00698 2.3335H13.5139V13.514H2.33337V5.00711ZM8.40976 8.89599H9.38198C9.78448 8.89599 10.1112 8.56933 10.1112 8.16683C10.1112 7.76433 9.78448 7.43766 9.38198 7.43766H8.40976V6.46544C8.40976 6.06294 8.0831 5.73627 7.6806 5.73627C7.2781 5.73627 6.95143 6.06294 6.95143 6.46544V7.43766H5.97921C5.57671 7.43766 5.25004 7.76433 5.25004 8.16683C5.25004 8.56933 5.57671 8.89599 5.97921 8.89599H6.95143V9.86822C6.95143 10.2707 7.2781 10.5974 7.6806 10.5974C8.0831 10.5974 8.40976 10.2707 8.40976 9.86822V8.89599ZM2.33337 22.9938V14.4869H13.5139V25.6674H5.00698C3.53018 25.6674 2.33337 24.4706 2.33337 22.9938ZM9.65421 21.8087C9.93907 21.5238 9.93907 21.062 9.65421 20.7771L8.95615 20.0762L9.65615 19.3762C9.94101 19.0913 9.94101 18.6295 9.65615 18.3446C9.37129 18.0598 8.90948 18.0598 8.62462 18.3446L7.92462 19.0446L7.22462 18.3446C6.93976 18.0598 6.47796 18.0598 6.1931 18.3446C5.90823 18.6295 5.90823 19.0913 6.1931 19.3762L6.8931 20.0762L6.1931 20.7762C5.90823 21.061 5.90823 21.5228 6.1931 21.8077C6.33504 21.9506 6.52171 22.0216 6.70837 22.0216C6.89504 22.0216 7.08171 21.9496 7.22365 21.8077L7.92365 21.1077L8.62365 21.8077C8.76559 21.9506 8.95226 22.0216 9.13893 22.0216C9.32559 22.0216 9.51226 21.9506 9.65421 21.8087ZM22.9935 2.3335H14.4865V13.514H25.6671V5.00711C25.6671 3.5303 24.4703 2.3335 22.9935 2.3335ZM22.5074 8.65294H18.1324C17.7299 8.65294 17.4032 8.32627 17.4032 7.92377C17.4032 7.52127 17.7299 7.19461 18.1324 7.19461H22.5074C22.9099 7.19461 23.2365 7.52127 23.2365 7.92377C23.2365 8.32627 22.9099 8.65294 22.5074 8.65294ZM14.4865 25.6674V14.4869H25.6671V22.9938C25.6671 24.4706 24.4703 25.6674 22.9935 25.6674H14.4865ZM17.8893 22.2646H22.2643C22.6668 22.2646 22.9935 21.938 22.9935 21.5355C22.9935 21.133 22.6668 20.8063 22.2643 20.8063H17.8893C17.4868 20.8063 17.1601 21.133 17.1601 21.5355C17.1601 21.938 17.4868 22.2646 17.8893 22.2646ZM17.8893 19.348H22.2643C22.6668 19.348 22.9935 19.0213 22.9935 18.6188C22.9935 18.2163 22.6668 17.8896 22.2643 17.8896H17.8893C17.4868 17.8896 17.1601 18.2163 17.1601 18.6188C17.1601 19.0213 17.4868 19.348 17.8893 19.348Z" fill="white"/>
</svg>
