<svg width="32" height="32" viewBox="0 0 32 32" fill="none" xmlns="http://www.w3.org/2000/svg">
<path d="M29.3983 32H7.80481C6.368 32 5.20319 30.8352 5.20319 29.3984V2.60163C5.20319 1.16481 4.03838 0 2.60156 0H24.1951C25.6319 0 26.7967 1.16481 26.7967 2.60163V29.3984C26.7967 30.8352 27.9615 32 29.3983 32Z" fill="#B0D3F0"/>
<path d="M29.3983 31.9999C30.8351 31.9999 31.9999 30.8351 31.9999 29.3983V23.1544H26.7966V29.3983C26.7966 30.8351 27.9614 31.9999 29.3983 31.9999Z" fill="#90BAE1"/>
<path d="M2.60163 0C1.16481 0 0 1.16481 0 2.60163V8.84553H5.20325V2.60163C5.20325 1.16481 4.03844 0 2.60163 0Z" fill="#90BAE1"/>
<path d="M20.4906 5.13619C19.3659 4.01157 17.5426 4.01157 16.418 5.13619L16.0001 5.55407L15.5822 5.13619C14.4576 4.01157 12.6343 4.01157 11.5097 5.13619C10.3851 6.26081 10.3851 8.08415 11.5097 9.20871L15.6557 13.3547C15.846 13.545 16.1544 13.545 16.3447 13.3547L20.4907 9.20871C21.6152 8.08415 21.6152 6.26081 20.4906 5.13619Z" fill="#FF5364"/>
<path fill-rule="evenodd" clip-rule="evenodd" d="M15.7398 16.1293H22.5536C22.9128 16.1293 23.204 16.4205 23.204 16.7797C23.204 17.1389 22.9128 17.4301 22.5536 17.4301H15.7398C15.3806 17.4301 15.0894 17.1389 15.0894 16.7797C15.0894 16.4205 15.3806 16.1293 15.7398 16.1293ZM8.79597 16.7805C8.79597 17.1397 9.08715 17.4309 9.44637 17.4309H11.8373C12.1966 17.4309 12.4877 17.1397 12.4877 16.7805C12.4877 16.4212 12.1966 16.1301 11.8373 16.1301H9.44637C9.08715 16.1301 8.79597 16.4212 8.79597 16.7805ZM9.4463 21.0724H16.1951C16.5543 21.0724 16.8455 20.7812 16.8455 20.422C16.8455 20.0627 16.5543 19.7715 16.1951 19.7715H9.4463C9.08709 19.7715 8.7959 20.0627 8.7959 20.422C8.7959 20.7812 9.08709 21.0724 9.4463 21.0724ZM9.4463 23.4138H22.5535C22.9127 23.4138 23.2039 23.705 23.2039 24.0642C23.2039 24.4235 22.9127 24.7146 22.5535 24.7146H9.4463C9.08709 24.7146 8.7959 24.4235 8.7959 24.0642C8.7959 23.705 9.08709 23.4138 9.4463 23.4138ZM9.4463 27.0561C9.08709 27.0561 8.7959 27.3473 8.7959 27.7065C8.7959 28.0657 9.08709 28.3569 9.4463 28.3569H16.2601C16.6193 28.3569 16.9105 28.0657 16.9105 27.7065C16.9105 27.3473 16.6193 27.0561 16.2601 27.0561H9.4463ZM22.5535 19.7715H20.0975C19.7383 19.7715 19.4471 20.0627 19.4471 20.422C19.4471 20.7812 19.7383 21.0724 20.0975 21.0724H22.5535C22.9128 21.0724 23.2039 20.7812 23.2039 20.422C23.2039 20.0627 22.9128 19.7715 22.5535 19.7715ZM20.1626 27.0561H22.5535C22.9128 27.0561 23.2039 27.3473 23.2039 27.7065C23.2039 28.0657 22.9128 28.3569 22.5535 28.3569H20.1626C19.8034 28.3569 19.5122 28.0657 19.5122 27.7065C19.5122 27.3473 19.8034 27.0561 20.1626 27.0561Z" fill="#285680"/>
</svg>
