<svg width="42" height="42" viewBox="0 0 42 42" fill="none" xmlns="http://www.w3.org/2000/svg">
<circle cx="21" cy="21" r="20" fill="#FFAB49" stroke="#FFF3E6" stroke-width="2"/>
<path d="M21 30C20.8684 30.0007 20.7379 29.9755 20.6161 29.9258C20.4943 29.876 20.3834 29.8027 20.29 29.71L12.52 21.93C11.5454 20.9452 10.9987 19.6156 10.9987 18.23C10.9987 16.8444 11.5454 15.5148 12.52 14.53C13.5023 13.5505 14.8328 13.0005 16.22 13.0005C17.6072 13.0005 18.9377 13.5505 19.92 14.53L21 15.61L22.08 14.53C23.0623 13.5505 24.3928 13.0005 25.78 13.0005C27.1672 13.0005 28.4977 13.5505 29.48 14.53C30.4546 15.5148 31.0013 16.8444 31.0013 18.23C31.0013 19.6156 30.4546 20.9452 29.48 21.93L21.71 29.71C21.6166 29.8027 21.5057 29.876 21.3839 29.9258C21.2621 29.9755 21.1316 30.0007 21 30Z" fill="#FFF3E6"/>
</svg>
