<svg width="32" height="32" viewBox="0 0 32 32" fill="none" xmlns="http://www.w3.org/2000/svg">
<path d="M3.15652 28.8056L0.0944472 11.4208C0.0648802 11.253 0.0464492 11.0834 0.0392748 10.9132C-0.00623195 8.94221 1.40903 7.23966 3.35514 6.92423L9.2641 5.88147L9.1041 28.8056H3.15652Z" fill="#35495E"/>
<path d="M25.8988 28.0437C25.7963 28.4691 25.4522 28.7937 25.0215 28.8713L7.63118 31.9388C6.53506 32.1302 5.40962 31.8403 4.5424 31.1431C3.67518 30.4459 3.15018 29.4091 3.10152 28.2975C3.05807 26.413 4.35547 24.7618 6.1967 24.3582L11.0684 25.7264H11.0629L6.6767 26.5044C6.18751 26.5903 5.76264 26.8911 5.51898 27.3239C5.27532 27.7567 5.23854 28.276 5.41876 28.7388C5.73083 29.4843 6.5234 29.9082 7.3167 29.754L20.6077 27.4092L25.8988 28.0437Z" fill="#2C3E50"/>
<path d="M11.0627 25.7268L6.67647 26.5047C6.18728 26.5907 5.76241 26.8915 5.51875 27.3243C5.27509 27.7571 5.23831 28.2764 5.41854 28.7392C5.7306 29.4847 6.52318 29.9086 7.31647 29.7544L20.6075 27.4096L11.0627 25.7268Z" fill="#F9EAB0"/>
<path d="M7.07678 18.301L10.1427 0.913946C10.2525 0.316293 10.8219 -0.0823622 11.4211 0.0190495L28.6773 3.06181C30.6248 3.37749 32.0412 5.08112 31.996 7.05353C31.9884 7.223 31.97 7.39181 31.9408 7.55891L28.8749 24.9459L7.07678 18.301Z" fill="#E64C3C"/>
<path d="M25.0694 5.77867C25.037 5.77866 25.0047 5.77589 24.9728 5.7704L12.4757 3.56681C12.1937 3.49726 12.0139 3.22094 12.0646 2.93492C12.1152 2.6489 12.379 2.45114 12.6677 2.48267L25.1643 4.6835C25.4461 4.73287 25.6435 4.98951 25.6188 5.27458C25.5941 5.55964 25.3555 5.77852 25.0694 5.77867Z" fill="#3F5C6C"/>
<path d="M22.4168 8.11034C22.3844 8.11038 22.3521 8.10743 22.3202 8.10151L14.1702 6.66648C13.877 6.60702 13.6846 6.32467 13.7365 6.03001C13.7884 5.73535 14.0657 5.53579 14.3616 5.58014L22.5122 7.01462C22.7957 7.06252 22.9949 7.32009 22.97 7.60651C22.945 7.89292 22.7043 8.11217 22.4168 8.11034Z" fill="#3F5C6C"/>
<path d="M23.5693 10.5745L12.1569 8.55852C11.8567 8.50551 11.5704 8.70583 11.5174 9.00597L10.5574 14.4405C10.5044 14.7406 10.7047 15.0269 11.0049 15.0799L22.4173 17.0959C22.7174 17.1489 23.0037 16.9486 23.0567 16.6485L24.0167 11.214C24.0697 10.9138 23.8694 10.6275 23.5693 10.5745Z" fill="#ECF0F1"/>
<path d="M31.9951 7.0508C31.9885 7.22107 31.9701 7.39068 31.9399 7.55839L28.8723 24.9432L24.6185 23.6467L27.0847 9.66597L27.6696 6.36666L28.2654 2.99011L28.6792 3.06184C30.6244 3.37883 32.0389 5.08041 31.9951 7.0508Z" fill="#C03A2B"/>
<path d="M25.6116 20.4467L8.35366 17.4067C8.28988 17.3957 8.22528 17.3902 8.16056 17.3901C7.58871 17.3916 7.11273 17.8297 7.06393 18.3994C7.01513 18.9692 7.4097 19.4818 7.97297 19.5805L25.3578 22.6425C25.8466 22.7311 26.2701 23.0335 26.5125 23.467C26.7549 23.9006 26.7908 24.4198 26.6102 24.8825C26.2998 25.6264 25.5084 26.0486 24.7178 25.8922L7.39918 22.8412C7.33539 22.8302 7.27079 22.8246 7.20607 22.8246C6.63317 22.8232 6.15448 23.2605 6.10417 23.8312C6.05386 24.4018 6.44866 24.9161 7.01297 25.015L24.4033 28.077C25.4986 28.2691 26.6236 27.9801 27.4908 27.284C28.358 26.5879 28.8835 25.5521 28.933 24.4412C28.9763 22.4679 27.5596 20.7642 25.6116 20.4467Z" fill="#802F34"/>
<path d="M26.6103 24.8828C26.2999 25.6266 25.5086 26.0488 24.7179 25.8924L7.39929 22.8414L7.97309 19.5807L25.3579 22.6428C25.8467 22.7313 26.2702 23.0337 26.5126 23.4673C26.7551 23.9008 26.7909 24.42 26.6103 24.8828Z" fill="#F9EAB0"/>
</svg>
