<svg width="32" height="32" viewBox="0 0 32 32" fill="none" xmlns="http://www.w3.org/2000/svg">
<path d="M2.50002 5.26868H27.5C28.875 5.26868 30 6.39367 30 7.7687V10.7687C30 12.1438 28.875 13.2688 27.5 13.2688H2.50002C1.125 13.2686 0 12.1436 0 10.7687V7.76864C0 6.39367 1.125 5.26868 2.50002 5.26868Z" fill="#A86A3F"/>
<path d="M7.97574 7.94337L23.6258 3.7934C24.1508 3.64341 24.7007 3.96841 24.8507 4.49342L27.4507 14.0934C27.6007 14.6184 27.2757 15.1684 26.7507 15.3184L6.37575 20.7434C5.85073 20.8934 5.30077 20.5684 5.15078 20.0433L3.25073 12.9934L7.97574 7.94337Z" fill="#3DB39E"/>
<path d="M24.7238 13.7934L21.3488 14.6934C21.0738 14.7684 20.7988 14.6184 20.7488 14.3434C20.6738 14.0684 20.8239 13.7934 21.0988 13.7434L23.9988 12.9684L22.4489 7.16844L19.5489 7.94343C19.2739 8.01846 18.9988 7.8684 18.9489 7.59342C18.8739 7.31844 19.0239 7.04339 19.2989 6.99344L22.6739 6.09347C22.9489 6.01844 23.2239 6.1685 23.2739 6.44348L25.0739 13.1934C25.1488 13.4684 24.9988 13.7434 24.7238 13.7934ZM10.7238 17.5684L7.3488 18.4684C7.07382 18.5434 6.79878 18.3934 6.74882 18.1184L4.94881 11.3684C4.87379 11.0934 5.02384 10.8184 5.29882 10.7684L8.67381 9.86848C8.94879 9.79345 9.22383 9.94351 9.27379 10.2185C9.34882 10.4935 9.19876 10.7685 8.92378 10.8185L6.02379 11.5935L7.57376 17.3934L10.4738 16.6184C10.7487 16.5434 11.0238 16.6935 11.0737 16.9684C11.1488 17.2184 10.9988 17.4934 10.7238 17.5684Z" fill="#78CABB"/>
<path d="M0.2 11.4433C4.64996 8.89326 16.65 1.86824 16.65 1.86824C17.125 1.59326 17.75 1.74326 18.025 2.21825L23.025 10.8182C23.3 11.2932 23.125 11.8932 22.65 12.1683L4.34997 22.6682C3.87498 22.9432 3.24999 22.7932 2.97494 22.3182C2.97494 22.3182 1.57497 19.4683 0.174927 17.0682C0.17499 11.4433 0.2 13.2933 0.2 11.4433Z" fill="#5ABEAC"/>
<path d="M20.4751 10.5434L16.9751 4.49341C16.8251 4.24344 16.5251 4.16841 16.3001 4.31841L13.2751 6.06839C13.0251 6.21839 12.9501 6.51838 13.1001 6.7434C13.2501 6.99337 13.5501 7.0684 13.7751 6.91841L16.3751 5.41839L19.3751 10.6184L16.7751 12.1184C16.5252 12.2684 16.4501 12.5684 16.6001 12.7934C16.7501 13.0434 17.0501 13.1184 17.2751 12.9684L20.3001 11.2184C20.5251 11.0935 20.6251 10.7935 20.4751 10.5434ZM7.22509 17.6185L4.62509 19.1185L1.62506 13.9184L4.22506 12.4184C4.47503 12.2684 4.55006 11.9684 4.40006 11.7434C4.25007 11.4934 3.95008 11.4184 3.72505 11.5684L0.700078 13.3184C0.450107 13.4684 0.375078 13.7684 0.525073 13.9934L4.02504 20.0434C4.17504 20.2934 4.47503 20.3684 4.70005 20.2184L7.72503 18.4684C7.975 18.3184 8.05003 18.0184 7.90004 17.7934C7.77505 17.5684 7.47506 17.4684 7.22509 17.6185ZM8.50008 8.79344C6.57509 9.89343 5.92509 12.3434 7.02507 14.2684C8.15007 16.1934 10.5751 16.8434 12.5001 15.7434C14.425 14.6434 15.075 12.1934 13.9751 10.2684C12.8501 8.3684 10.4251 7.69346 8.50008 8.79344ZM20.4751 10.5434L16.9751 4.49341C16.8251 4.24344 16.5251 4.16841 16.3001 4.31841L13.2751 6.06839C13.0251 6.21839 12.9501 6.51838 13.1001 6.7434C13.2501 6.99337 13.5501 7.0684 13.7751 6.91841L16.3751 5.41839L19.3751 10.6184L16.7751 12.1184C16.5252 12.2684 16.4501 12.5684 16.6001 12.7934C16.7501 13.0434 17.0501 13.1184 17.2751 12.9684L20.3001 11.2184C20.5251 11.0935 20.6251 10.7935 20.4751 10.5434ZM7.22509 17.6185L4.62509 19.1185L1.62506 13.9184L4.22506 12.4184C4.47503 12.2684 4.55006 11.9684 4.40006 11.7434C4.25007 11.4934 3.95008 11.4184 3.72505 11.5684L0.700078 13.3184C0.450107 13.4684 0.375078 13.7684 0.525073 13.9934L4.02504 20.0434C4.17504 20.2934 4.47503 20.3684 4.70005 20.2184L7.72503 18.4684C7.975 18.3184 8.05003 18.0184 7.90004 17.7934C7.77505 17.5684 7.47506 17.4684 7.22509 17.6185ZM8.50008 8.79344C6.57509 9.89343 5.92509 12.3434 7.02507 14.2684C8.15007 16.1934 10.5751 16.8434 12.5001 15.7434C14.425 14.6434 15.075 12.1934 13.9751 10.2684C12.8501 8.3684 10.4251 7.69346 8.50008 8.79344Z" fill="#8CD2C5"/>
<path d="M28.5 30.2688H2.50002C1.125 30.2688 0 29.1438 0 27.7688V9.76882H28.5C29.8751 9.76882 31.0001 10.8938 31.0001 12.2688V27.7689C31 29.1438 29.875 30.2688 28.5 30.2688ZM2.00002 9.76882H0V7.7688C0 8.86878 0.899971 9.76882 2.00002 9.76882Z" fill="#C47E4D"/>
<path d="M30.9992 24.0187H26.9992C25.0742 24.0187 23.4993 22.4438 23.4993 20.5188C23.4993 18.5938 25.0742 17.0188 26.9992 17.0188H30.9992C31.5492 17.0188 31.9992 17.4688 31.9992 18.0188V23.0188C31.9992 23.5688 31.5492 24.0187 30.9992 24.0187Z" fill="#A86A3F"/>
<path d="M27.0003 18.5188C28.1002 18.5188 29.0003 19.4188 29.0003 20.5188C29.0003 21.6189 28.1003 22.5188 27.0003 22.5188C25.9003 22.5188 25.0002 21.6189 25.0002 20.5188C25.0002 19.4188 25.9003 18.5188 27.0003 18.5188Z" fill="#EFC75E"/>
<path d="M27.5003 22.0186C26.4003 22.0186 25.5002 21.1186 25.5002 20.0185C25.5002 19.5936 25.6252 19.1935 25.8503 18.8685C25.3252 19.2185 25.0002 19.8185 25.0002 20.5185C25.0002 21.6185 25.9002 22.5186 27.0003 22.5186C27.6753 22.5186 28.2753 22.1686 28.6503 21.6685C28.3253 21.8936 27.9252 22.0186 27.5003 22.0186Z" fill="#D7B354"/>
<path d="M28.5 29.2685H2.50002C1.125 29.2685 0 28.1435 0 26.7684V27.7684C0 29.1435 1.125 30.2685 2.50002 30.2685H28.5C29.8751 30.2685 31.0001 29.1435 31.0001 27.7684V26.7684C31 28.1435 29.875 29.2685 28.5 29.2685Z" fill="#B27245"/>
<path d="M28.5 9.76882H2.00002C0.899971 9.76882 0 8.86878 0 7.7688V8.76881C0 9.86879 0.899971 10.7688 2.00002 10.7688H28.5C29.8751 10.7688 31.0001 11.8938 31.0001 13.2689V12.2688C31 10.8938 29.875 9.76882 28.5 9.76882Z" fill="#CA8B5F"/>
</svg>
