<svg width="32" height="32" viewBox="0 0 32 32" fill="none" xmlns="http://www.w3.org/2000/svg">
<g clip-path="url(#clip0)">
<path d="M31.9959 4.45843V19.698C31.9959 20.8079 31.1059 21.6979 29.996 21.6979H5.71673C4.60677 21.6979 3.7168 20.8079 3.7168 19.698V4.45843C3.7168 3.35847 4.60677 2.4585 5.71673 2.4585H29.996C31.1059 2.4585 31.9959 3.35847 31.9959 4.45843Z" fill="#6F7070"/>
<path d="M31.9991 6.09631H3.70996V9.34422H31.9991V6.09631Z" fill="#464646"/>
<path d="M24.6232 3.27747H18.1694C17.6174 3.27747 17.1694 3.72445 17.1694 4.27743C17.1694 4.83041 17.6174 5.2774 18.1694 5.2774H24.6232C25.1752 5.2774 25.6232 4.83041 25.6232 4.27743C25.6232 3.72545 25.1752 3.27747 24.6232 3.27747Z" fill="#787878"/>
<path d="M29.2853 3.27747H27.5363C26.9844 3.27747 26.5364 3.72445 26.5364 4.27743C26.5364 4.83041 26.9844 5.2774 27.5363 5.2774H29.2853C29.8373 5.2774 30.2853 4.83041 30.2853 4.27743C30.2853 3.72545 29.8383 3.27747 29.2853 3.27747Z" fill="#787878"/>
<path d="M11.2376 6.72058H6.36179C5.8098 6.72058 5.36182 7.16757 5.36182 7.72055C5.36182 8.27353 5.8098 8.72052 6.36179 8.72052H11.2376C11.7896 8.72052 12.2376 8.27353 12.2376 7.72055C12.2376 7.16757 11.7906 6.72058 11.2376 6.72058Z" fill="#3E3E3E"/>
<path d="M15.9015 6.72058H14.1535C13.6016 6.72058 13.1536 7.16757 13.1536 7.72055C13.1536 8.27353 13.6016 8.72052 14.1535 8.72052H15.9015C16.4535 8.72052 16.9014 8.27353 16.9014 7.72055C16.9014 7.16757 16.4535 6.72058 15.9015 6.72058Z" fill="#3E3E3E"/>
<g opacity="0.07">
<path opacity="0.07" d="M31.9936 15.8278V19.6977C31.9936 20.8076 31.1036 21.6976 29.9937 21.6976H27.5737L28.2637 12.0979L31.9936 15.8278Z" fill="#010101"/>
</g>
<path d="M26.2872 29.5417H1.99994C0.894972 29.5417 0 28.6467 0 27.5418V12.2993C0 11.1953 0.894972 10.2993 1.99994 10.2993H26.2872C27.3921 10.2993 28.2871 11.1953 28.2871 12.2993V27.5408C28.2871 28.6457 27.3921 29.5417 26.2872 29.5417Z" fill="#4B9FD8"/>
<path d="M12.9196 10.2993C6.67979 15.0292 2.28993 21.089 0.0199994 27.7388C0.00999969 27.6588 0 27.5788 0 27.4888V12.2493C0 11.2993 0.659979 10.4993 1.54995 10.2993H12.9196Z" fill="#3A9BD6"/>
<path d="M15.3679 29.5415C21.6077 24.8117 25.9976 18.7518 28.2675 12.1021C28.2775 12.182 28.2875 12.262 28.2875 12.352V27.5916C28.2875 28.5415 27.6276 29.3415 26.7376 29.5415H15.3679Z" fill="#3A9BD6"/>
<path d="M19.3554 18.1709C20.7007 18.1709 21.7913 17.0803 21.7913 15.735C21.7913 14.3897 20.7007 13.2991 19.3554 13.2991C18.01 13.2991 16.9194 14.3897 16.9194 15.735C16.9194 17.0803 18.01 18.1709 19.3554 18.1709Z" fill="#FEE218"/>
<path d="M22.8524 18.1709C24.1978 18.1709 25.2884 17.0803 25.2884 15.735C25.2884 14.3897 24.1978 13.2991 22.8524 13.2991C21.5071 13.2991 20.4165 14.3897 20.4165 15.735C20.4165 17.0803 21.5071 18.1709 22.8524 18.1709Z" fill="#CD494C"/>
<path d="M8.369 21.867H3.63815C3.08617 21.867 2.63818 21.42 2.63818 20.867C2.63818 20.3141 3.08617 19.8671 3.63815 19.8671H8.369C8.92099 19.8671 9.36897 20.3141 9.36897 20.867C9.36897 21.419 8.92099 21.867 8.369 21.867Z" fill="white"/>
<path d="M12.5949 16.7349H3.63815C3.08617 16.7349 2.63818 16.2879 2.63818 15.735C2.63818 15.182 3.08617 14.735 3.63815 14.735H12.5949C13.1469 14.735 13.5948 15.182 13.5948 15.735C13.5948 16.2879 13.1469 16.7349 12.5949 16.7349Z" fill="white"/>
<path d="M6.56879 26.9985H3.63888C3.0869 26.9985 2.63892 26.5515 2.63892 25.9985C2.63892 25.4455 3.0869 24.9985 3.63888 24.9985H6.56879C7.12078 24.9985 7.56876 25.4455 7.56876 25.9985C7.56876 26.5505 7.12178 26.9985 6.56879 26.9985Z" fill="#8BD5EC"/>
<path d="M12.5956 26.9985H9.66574C9.11376 26.9985 8.66577 26.5515 8.66577 25.9985C8.66577 25.4455 9.11376 24.9985 9.66574 24.9985H12.5956C13.1476 24.9985 13.5956 25.4455 13.5956 25.9985C13.5956 26.5505 13.1476 26.9985 12.5956 26.9985Z" fill="#DAEFF6"/>
<path d="M18.6225 26.9985H15.6926C15.1406 26.9985 14.6926 26.5515 14.6926 25.9985C14.6926 25.4455 15.1406 24.9985 15.6926 24.9985H18.6225C19.1745 24.9985 19.6225 25.4455 19.6225 25.9985C19.6225 26.5505 19.1745 26.9985 18.6225 26.9985Z" fill="#8BD5EC"/>
<path d="M24.6496 26.9985H21.7197C21.1677 26.9985 20.7197 26.5515 20.7197 25.9985C20.7197 25.4455 21.1677 24.9985 21.7197 24.9985H24.6496C25.2016 24.9985 25.6496 25.4455 25.6496 25.9985C25.6496 26.5505 25.2016 26.9985 24.6496 26.9985Z" fill="#DAEFF6"/>
</g>
<defs>
<clipPath id="clip0">
<rect width="32" height="32" fill="white"/>
</clipPath>
</defs>
</svg>
