<svg width="29" height="10" viewBox="0 0 29 10" fill="none" xmlns="http://www.w3.org/2000/svg">
<path fill-rule="evenodd" clip-rule="evenodd" d="M7.64727 9.65665H5.22404L3.40692 2.52033C3.32067 2.19205 3.13754 1.90184 2.86816 1.76506C2.1959 1.42133 1.45511 1.14777 0.646973 1.0098V0.735056H4.5506C5.08935 0.735056 5.49342 1.14777 5.56077 1.6271L6.50359 6.77476L8.92563 0.735056H11.2815L7.64727 9.65665ZM12.6284 9.65665H10.3399L12.2243 0.735056H14.5129L12.6284 9.65665ZM17.4737 3.20661C17.541 2.72609 17.9451 2.45135 18.4165 2.45135C19.1573 2.38236 19.9642 2.52033 20.6377 2.86287L21.0418 0.942014C20.3683 0.667266 19.6275 0.529297 18.9553 0.529297C16.7341 0.529297 15.1178 1.76507 15.1178 3.48017C15.1178 4.78492 16.2627 5.47001 17.0708 5.88273C17.9451 6.29426 18.2818 6.569 18.2145 6.98053C18.2145 7.59782 17.541 7.87257 16.8688 7.87257C16.0606 7.87257 15.2525 7.66681 14.5129 7.32308L14.1088 9.24512C14.9169 9.58767 15.7912 9.72564 16.5994 9.72564C19.0899 9.79343 20.6377 8.55885 20.6377 6.70578C20.6377 4.37221 17.4737 4.23543 17.4737 3.20661ZM28.647 9.65665L26.8299 0.735056H24.878C24.474 0.735056 24.0699 1.0098 23.9352 1.42133L20.5703 9.65665H22.9262L23.3965 8.35308H26.2911L26.5605 9.65665H28.647ZM25.2148 3.13763L25.887 6.50003H24.0026L25.2148 3.13763Z" fill="#172B85"/>
</svg>
