<svg width="68" height="68" viewBox="0 0 68 68" fill="none" xmlns="http://www.w3.org/2000/svg">
<path fill-rule="evenodd" clip-rule="evenodd" d="M34 5.3125C18.3519 5.3125 5.66663 17.9978 5.66663 33.6458C5.66663 49.2939 18.3519 61.9792 34 61.9792C49.648 61.9792 62.3333 49.2939 62.3333 33.6458C62.3333 17.9978 49.648 5.3125 34 5.3125ZM47.7169 29.6268C48.9746 28.4263 49.0209 26.4335 47.8204 25.1758C46.6199 23.9182 44.6272 23.8718 43.3695 25.0723L30.1522 37.6888L24.6305 32.418C23.3728 31.2175 21.3801 31.2638 20.1795 32.5215C18.979 33.7792 19.0254 35.7719 20.283 36.9725L27.9784 44.3181C29.1949 45.4794 31.1093 45.4794 32.3259 44.3182L47.7169 29.6268Z" fill="#88F69A"/>
</svg>
