<svg width="32" height="32" viewBox="0 0 32 32" fill="none" xmlns="http://www.w3.org/2000/svg">
<path d="M32 28.1875C32 29.7437 30.7439 31 29.1875 31H24.3625L21.625 29.8938L21.3064 31H5.0625L4.8374 29.7625L2.4751 30.9624C1.06885 30.8125 0 29.6311 0 28.1875C0 27.4375 0.225098 26.7249 0.675049 26.1062L1.875 24.4375H4.6875V8.5H10.45C10.6001 9.4187 10.9751 10.2437 11.5 10.9375L12.7937 12.6624L13.3562 13.4126L16 16.9375L18.4187 13.7312L18.7375 13.3L20.5 10.9375C21.0437 10.2437 21.3999 9.3999 21.55 8.5H27.3125V24.4375H30.125L31.325 26.1062C31.7749 26.7249 32 27.4375 32 28.1875Z" fill="#6AA9FF"/>
<path d="M32 28.1875C32 29.7437 30.7439 31 29.1875 31H24.3625L21.625 29.8938L21.3064 31H16V16.9375L18.4187 13.7312L18.7375 13.3L20.5 10.9375C21.0437 10.2437 21.3999 9.3999 21.55 8.5H27.3125V24.4375H30.125L31.325 26.1062C31.7749 26.7249 32 27.4375 32 28.1875Z" fill="#4895FF"/>
<path d="M27.3125 18.25L18.8125 26.6875L24.3625 31H21.3064L16 26.875L12.2124 23.9312L5.0625 31L2.4751 30.9624L10.7124 22.7688L4.6875 18.1187V16.9375L5.2688 16.2063L6.71265 17.3313L12.1187 11.9875L13.45 13.3188L13.3562 13.4126L8.2749 18.4937L16 24.4937L17.3313 25.5249L23.5 19.375L17.6125 14.8L17.5938 14.7812L18.4187 13.7312L18.7375 13.3L24.8313 18.0249L26.6562 16.2812L27.3125 16.9375V18.25Z" fill="#7ED8F6"/>
<path d="M5.625 4.75V25.375H2.8125C1.2561 25.375 0 26.6311 0 28.1875V8.5C0 6.4375 1.6875 4.75 3.75 4.75H5.625Z" fill="#E0F4FF"/>
<path d="M27.3125 18.25L18.8125 26.6875L24.3625 31H21.3064L16 26.875V24.4937L17.3313 25.5249L23.5 19.375L17.5938 14.7812L18.7375 13.3L24.8313 18.0249L26.6562 16.2812L27.3125 16.9375V18.25Z" fill="#64BCE2"/>
<path d="M16 1C12.3813 1 9.4375 3.94385 9.4375 7.5625C9.4375 7.8811 9.4563 8.19995 9.4939 8.5C9.6626 9.5874 10.075 10.6187 10.75 11.5L16 18.4937L21.25 11.5C21.925 10.6187 22.3376 9.5874 22.5061 8.5C22.5437 8.19995 22.5625 7.8811 22.5625 7.5625C22.5625 3.94385 19.6187 1 16 1ZM18.6438 8.5C18.2688 9.5874 17.2188 10.375 16 10.375C14.7812 10.375 13.7312 9.5874 13.3562 8.5C13.2439 8.19995 13.1875 7.8999 13.1875 7.5625C13.1875 6.0061 14.4436 4.75 16 4.75C17.5564 4.75 18.8125 6.0061 18.8125 7.5625C18.8125 7.8999 18.7561 8.19995 18.6438 8.5Z" fill="#FF641A"/>
<path d="M26.375 4.75V25.375H29.1875C30.7439 25.375 32 26.6311 32 28.1875V8.5C32 6.4375 30.3125 4.75 28.25 4.75H26.375Z" fill="#BBDCFF"/>
<path d="M22.5625 7.5625C22.5625 7.8811 22.5437 8.19995 22.5061 8.5C22.3374 9.5874 21.925 10.6187 21.25 11.5L16 18.4937V10.375C17.2188 10.375 18.2688 9.5874 18.6438 8.5C18.7561 8.19995 18.8125 7.8999 18.8125 7.5625C18.8125 6.0061 17.5564 4.75 16 4.75V1C19.6187 1 22.5625 3.94385 22.5625 7.5625Z" fill="#F03800"/>
</svg>
