<svg width="16" height="16" viewBox="0 0 16 16" fill="none" xmlns="http://www.w3.org/2000/svg">
<path d="M11.9871 2H4.37172C3.7991 2 3.33325 2.46584 3.33325 3.03847V12.9616C3.33325 13.5342 3.7991 14 4.37172 14H11.9871C12.1783 14 12.3333 13.845 12.3333 13.6539V2.34615C12.3333 2.15499 12.1783 2 11.9871 2ZM5.06402 3.5H10.6025C10.7937 3.5 10.9486 3.65499 10.9486 3.84615C10.9486 4.0373 10.7936 4.1923 10.6025 4.1923H5.06402C4.87284 4.1923 4.71787 4.0373 4.71787 3.84615C4.71787 3.65499 4.87286 3.5 5.06402 3.5ZM5.06402 5.34615H7.84478C8.03596 5.34615 8.19093 5.50114 8.19093 5.6923C8.19093 5.88345 8.03594 6.03845 7.84478 6.03845H5.06402C4.87284 6.03845 4.71787 5.88345 4.71787 5.6923C4.71787 5.50114 4.87286 5.34615 5.06402 5.34615ZM11.641 13.3077H4.37172C4.18085 13.3077 4.02557 13.1524 4.02557 12.9616V12.5H11.641V13.3077Z" fill="#ADB3BE"/>
</svg>
