<svg width="32" height="32" viewBox="0 0 32 32" fill="none" xmlns="http://www.w3.org/2000/svg">
<g clip-path="url(#clip0)">
<path d="M13.003 24.0494V26.0195C13.003 26.7729 12.642 27.4724 12.0491 27.8679L10.6169 28.8232H21.3824L19.9503 27.8679C19.3574 27.4724 18.9964 26.7729 18.9964 26.0195V24.0494C17.0256 24.0494 14.9738 24.0494 13.003 24.0494Z" fill="#B1DBFC"/>
<path d="M13.0031 24.0494V26.0195C13.0031 26.7729 12.6421 27.4724 12.0491 27.8679L10.6169 28.8232H14.0917L14.1219 28.8031C14.7148 28.4076 15.0758 27.7081 15.0758 26.9547V25.5908C15.0758 25.256 15.3472 24.9846 15.682 24.9846H18.9963V24.0494H13.0031Z" fill="#8BCAFF"/>
<path d="M22.3845 28.7542H9.61452C9.25895 28.7542 8.9707 29.0424 8.9707 29.398V30.1189C8.9707 30.4745 9.25895 30.7627 9.61452 30.7627H22.3845C22.74 30.7627 23.0283 30.4745 23.0283 30.1189V29.398C23.0283 29.0424 22.74 28.7542 22.3845 28.7542Z" fill="#DFEBFA"/>
<path d="M12.5388 30.1189V29.398C12.5388 29.0424 12.8271 28.7542 13.1826 28.7542H9.61452C9.25895 28.7542 8.9707 29.0424 8.9707 29.398V30.1189C8.9707 30.4745 9.25895 30.7627 9.61452 30.7627H13.1827C12.8271 30.7627 12.5388 30.4745 12.5388 30.1189Z" fill="#B1DBFC"/>
<path d="M30.1444 1.23694H1.85557C0.832378 1.23694 0 2.06932 0 3.09251V22.2791C0 23.3023 0.832378 24.1347 1.85557 24.1347H30.1444C31.1676 24.1347 32 23.3023 32 22.2791V3.09251C32 2.06932 31.1676 1.23694 30.1444 1.23694Z" fill="#695D67"/>
<path d="M2.14638 22.2792V3.09251C2.14638 2.06932 2.97876 1.23694 4.00195 1.23694H1.85557C0.832378 1.23694 0 2.06932 0 3.09251V22.2791C0 23.3023 0.832378 24.1347 1.85557 24.1347H4.00189C2.97876 24.1348 2.14638 23.3023 2.14638 22.2792Z" fill="#554E56"/>
<path d="M2.00879 5.50446V5.63321V21.8589C2.00879 22.0064 2.12829 22.1259 2.27579 22.1259H29.7247C29.8721 22.1259 29.9917 22.0064 29.9917 21.8589C29.9917 21.4263 29.9917 10.2187 29.9917 5.50439H2.00879V5.50446Z" fill="#FFE181"/>
<path d="M3.94055 21.8591V5.63339V5.50464H2.00879V5.63339V21.8591C2.00879 22.0066 2.12829 22.1261 2.27579 22.1261H4.20749C4.06005 22.126 3.94055 22.0065 3.94055 21.8591Z" fill="#FEC458"/>
<path d="M29.7244 3.24573H4.84375V5.63367H29.9914C29.9914 4.51598 29.9914 3.73748 29.9914 3.51267C29.9913 3.36523 29.8718 3.24573 29.7244 3.24573Z" fill="#5CB3F8"/>
<path d="M4.90841 3.24573H2.27579C2.12835 3.24573 2.00879 3.36523 2.00879 3.51273V5.63373H4.90841V3.24573Z" fill="#FF656F"/>
<path d="M4.20741 3.24573H2.27579C2.12835 3.24573 2.00879 3.36523 2.00879 3.51273V5.63373H3.94041V3.51273C3.94041 3.36523 4.05998 3.24573 4.20741 3.24573Z" fill="#FF4756"/>
<path d="M23.9773 9.20886H22.8734V16.5863C22.8734 16.9859 22.5258 17.2986 22.1289 17.2517C21.6988 17.2008 21.1733 17.0062 20.2026 16.4783C18.6222 15.6191 17.1884 16.4225 16.4751 16.9767C16.3391 17.0823 16.172 17.1391 15.9998 17.1391C15.8276 17.1391 15.6605 17.0823 15.5245 16.9767C14.8112 16.4225 13.3774 15.6191 11.797 16.4783C10.8263 17.0062 10.3008 17.2008 9.87065 17.2517C9.47377 17.2985 9.12621 16.9859 9.12621 16.5863V9.20886H8.02233C7.65727 9.20886 7.36133 9.5048 7.36133 9.86987V18.5376C7.36133 18.9027 7.65727 19.1986 8.02233 19.1986H13.886C14.184 19.1986 14.4631 19.3644 14.5882 19.6348C14.818 20.1312 15.3202 20.4756 15.9032 20.4756C16.4861 20.4756 16.9884 20.1312 17.2181 19.6348C17.3432 19.3644 17.6224 19.1986 17.9204 19.1986H23.9772C24.3423 19.1986 24.6382 18.9027 24.6382 18.5376V9.86987C24.6383 9.5048 24.3423 9.20886 23.9773 9.20886Z" fill="#FF656F"/>
<path d="M10.358 18.5375V17.1414C10.1755 17.1996 10.0172 17.2342 9.87064 17.2515C9.47377 17.2984 9.1262 16.9858 9.1262 16.5862V9.20886H8.02233C7.65727 9.20886 7.36133 9.5048 7.36133 9.86986V18.5375C7.36133 18.9026 7.65727 19.1985 8.02233 19.1985H11.019C10.654 19.1986 10.358 18.9026 10.358 18.5375Z" fill="#FF4756"/>
<path d="M22.6554 8.44495C22.5394 8.50939 22.4031 8.53995 22.2599 8.52313C21.8298 8.4727 21.175 8.2782 20.2029 7.74957C17.9532 6.52645 16.0001 8.67276 16.0001 8.67276L15.6829 9.0737V16.977L16.0001 17.4606C16.1723 17.4606 16.3394 17.4038 16.4754 17.2982C17.1887 16.744 18.6225 15.9406 20.2028 16.7999C21.1735 17.3277 21.8278 17.5224 22.2579 17.5732C22.6548 17.6201 23.0024 17.3074 23.0024 16.9078V8.65214C23.0025 8.47164 22.8079 8.36032 22.6554 8.44495Z" fill="#DFEBFA"/>
<path d="M17.5715 7.61182C16.6235 7.98732 16.0001 8.67225 16.0001 8.67225L15.6829 9.07319V16.9765L16.0001 17.4601C16.1723 17.4601 16.3394 17.4033 16.4754 17.2977C16.7469 17.0868 17.1229 16.8399 17.5715 16.6623V7.61182H17.5715Z" fill="#B1DBFC"/>
<path d="M21.3031 10.6156C20.9023 10.475 20.4544 10.2706 19.9717 10.0082C19.2619 9.62242 18.5045 9.58836 17.7206 9.90711C17.4735 10.0075 17.1918 9.8888 17.0914 9.64174C16.9909 9.39467 17.1097 9.11292 17.3568 9.01255C18.4069 8.58555 19.4706 8.63655 20.433 9.1598C20.8704 9.39755 21.2707 9.58074 21.6228 9.7043C21.8745 9.79255 22.0069 10.0682 21.9186 10.3199C21.8304 10.5715 21.5547 10.7039 21.3031 10.6156Z" fill="#8BCAFF"/>
<path d="M21.3031 12.37C20.9023 12.2294 20.4544 12.025 19.9717 11.7626C19.2619 11.3768 18.5045 11.3428 17.7206 11.6615C17.4735 11.7618 17.1918 11.6431 17.0914 11.3961C16.9909 11.1491 17.1097 10.8673 17.3568 10.7669C18.4069 10.3399 19.4706 10.391 20.433 10.9142C20.8704 11.1519 21.2707 11.3351 21.6228 11.4587C21.8745 11.5469 22.0069 11.8226 21.9186 12.0743C21.8304 12.3259 21.5547 12.4583 21.3031 12.37Z" fill="#8BCAFF"/>
<path d="M21.3031 14.1223C20.9023 13.9817 20.4544 13.7773 19.9717 13.515C19.2619 13.1291 18.5045 13.095 17.7206 13.4138C17.4735 13.5141 17.1918 13.3955 17.0914 13.1485C16.9909 12.9014 17.1097 12.6197 17.3568 12.5193C18.4069 12.0922 19.4706 12.1433 20.433 12.6665C20.8704 12.9043 21.2707 13.0875 21.6228 13.211C21.8745 13.2993 22.0069 13.5749 21.9186 13.8266C21.8304 14.0783 21.5547 14.2106 21.3031 14.1223Z" fill="#8BCAFF"/>
<path d="M21.3031 15.8755C20.9023 15.7349 20.4544 15.5305 19.9717 15.2681C19.2619 14.8822 18.5045 14.8482 17.7206 15.167C17.4735 15.2674 17.1918 15.1486 17.0914 14.9016C16.9909 14.6546 17.1097 14.3728 17.3568 14.2724C18.4069 13.8454 19.4706 13.8964 20.433 14.4197C20.8704 14.6574 21.2707 14.8406 21.6228 14.9642C21.8745 15.0524 22.0069 15.3281 21.9186 15.5797C21.8304 15.8314 21.5547 15.9637 21.3031 15.8755Z" fill="#8BCAFF"/>
<path d="M9.3448 8.44495C9.4608 8.50939 9.59711 8.53995 9.7403 8.52314C10.1704 8.4727 10.8252 8.2782 11.7974 7.74957C14.0471 6.52645 16.0001 8.67276 16.0001 8.67276V17.4607C15.8279 17.4607 15.6609 17.4039 15.5249 17.2983C14.8116 16.7441 13.3777 15.9407 11.7974 16.8C10.8266 17.3278 10.1724 17.5225 9.74224 17.5733C9.34536 17.6202 8.9978 17.3075 8.9978 16.9079V8.65214C8.9978 8.47164 9.1923 8.36033 9.3448 8.44495Z" fill="#DFEBFA"/>
<path d="M10.5911 16.8777V8.30591C10.2403 8.43297 9.9605 8.49703 9.74012 8.52291C9.597 8.53972 9.46062 8.5091 9.34462 8.44472C9.19212 8.36003 8.99756 8.47135 8.99756 8.65191V16.9077C8.99756 17.3073 9.34518 17.62 9.742 17.573C9.99131 17.5436 10.3166 17.4652 10.7346 17.3022C10.6451 17.1848 10.5911 17.0381 10.5911 16.8777Z" fill="#B1DBFC"/>
<path d="M10.0811 10.3205C9.99281 10.0689 10.1252 9.79326 10.3768 9.70495C10.729 9.58138 11.1293 9.3982 11.5666 9.16045C12.5292 8.63707 13.5929 8.5862 14.6429 9.0132C14.8899 9.1137 15.0087 9.39538 14.9083 9.64238C14.8078 9.88945 14.5261 10.0084 14.2791 9.90776C13.4951 9.58888 12.7377 9.62301 12.0279 10.0089C11.5454 10.2713 11.0974 10.4756 10.6966 10.6163C10.4451 10.7045 10.1694 10.5723 10.0811 10.3205Z" fill="#8BCAFF"/>
<path d="M10.0811 12.0734C9.99281 11.8218 10.1252 11.5462 10.3768 11.4579C10.729 11.3343 11.1293 11.1511 11.5666 10.9134C12.5292 10.39 13.5929 10.3391 14.6429 10.7661C14.8899 10.8666 15.0087 11.1483 14.9083 11.3953C14.8078 11.6424 14.5261 11.7613 14.2791 11.6607C13.4951 11.3419 12.7377 11.3759 12.0279 11.7618C11.5454 12.0242 11.0974 12.2285 10.6966 12.3692C10.4451 12.4574 10.1694 12.3252 10.0811 12.0734Z" fill="#8BCAFF"/>
<path d="M10.0811 13.8278C9.99281 13.5762 10.1252 13.3006 10.3768 13.2123C10.729 13.0887 11.1293 12.9055 11.5666 12.6677C12.5292 12.1444 13.5929 12.0936 14.6429 12.5205C14.8899 12.621 15.0087 12.9027 14.9083 13.1497C14.8078 13.3968 14.5261 13.5157 14.2791 13.4151C13.4951 13.0963 12.7377 13.1303 12.0279 13.5162C11.5454 13.7786 11.0974 13.9829 10.6966 14.1236C10.4451 14.2118 10.1694 14.0796 10.0811 13.8278Z" fill="#8BCAFF"/>
<path d="M10.0811 15.5804C9.99281 15.3287 10.1252 15.0531 10.3768 14.9648C10.729 14.8413 11.1293 14.6581 11.5666 14.4203C12.5292 13.897 13.5929 13.8461 14.6429 14.2731C14.8899 14.3736 15.0087 14.6553 14.9083 14.9023C14.8078 15.1494 14.5261 15.2683 14.2791 15.1676C13.4951 14.8488 12.7377 14.8829 12.0279 15.2688C11.5454 15.5311 11.0974 15.7355 10.6966 15.8761C10.4451 15.9644 10.1694 15.8321 10.0811 15.5804Z" fill="#8BCAFF"/>
</g>
<defs>
<clipPath id="clip0">
<rect width="32" height="32" fill="white"/>
</clipPath>
</defs>
</svg>
