<svg width="32" height="32" viewBox="0 0 32 32" fill="none" xmlns="http://www.w3.org/2000/svg">
<path d="M16 11.1515C13.3212 11.1515 11.1515 13.3212 11.1515 16C11.1515 18.6787 13.3212 20.8484 16 20.8484C18.6788 20.8484 20.8485 18.6787 20.8485 16C20.8485 13.3212 18.6788 11.1515 16 11.1515ZM26.8364 14.7878C26.2788 9.73329 22.2667 5.72117 17.2121 5.1636V3.87875C17.2121 3.21208 16.6667 2.66663 16 2.66663C15.3333 2.66663 14.7879 3.21208 14.7879 3.87875V5.1636C9.73332 5.72117 5.7212 9.73329 5.16363 14.7878H3.87878C3.21211 14.7878 2.66666 15.3333 2.66666 16C2.66666 16.6666 3.21211 17.2121 3.87878 17.2121H5.16363C5.7212 22.2666 9.73332 26.2787 14.7879 26.8363V28.1212C14.7879 28.7878 15.3333 29.3333 16 29.3333C16.6667 29.3333 17.2121 28.7878 17.2121 28.1212V26.8363C22.2667 26.2787 26.2788 22.2666 26.8364 17.2121H28.1212C28.7879 17.2121 29.3333 16.6666 29.3333 16C29.3333 15.3333 28.7879 14.7878 28.1212 14.7878H26.8364ZM16 24.4848C11.3091 24.4848 7.51514 20.6909 7.51514 16C7.51514 11.3091 11.3091 7.51511 16 7.51511C20.6909 7.51511 24.4848 11.3091 24.4848 16C24.4848 20.6909 20.6909 24.4848 16 24.4848Z" fill="#78C6C2"/>
</svg>
