<svg width="64" height="64" viewBox="0 0 64 64" fill="none" xmlns="http://www.w3.org/2000/svg">
<g clip-path="url(#clip0)">
<path d="M13.918 20.108L25.5292 26.9516L37.5248 20.108H37.6786C37.7464 20.3845 37.7723 20.6696 37.7554 20.9538V32.1805C37.7984 33.8362 36.4911 35.2134 34.8355 35.2564C34.7835 35.2577 34.7316 35.2577 34.6796 35.2564H16.6862C15.0305 35.2993 13.6533 33.9921 13.6104 32.3364C13.609 32.2845 13.609 32.2325 13.6104 32.1805V20.9538C13.6239 20.641 13.6756 20.3312 13.7642 20.0311L13.918 20.108Z" fill="#00CEB4"/>
<path d="M37.5248 20.1079L25.5291 26.9515L13.918 20.1079H13.7642C14.138 18.8003 15.3263 17.8935 16.6862 17.8779H34.6796C36.0596 17.8848 37.2745 18.7884 37.6786 20.1079H37.5248Z" fill="#00EFD1"/>
<path d="M48.33 50.4085L50.5049 48.2336L45.8125 43.5413L43.6376 45.7161L48.33 50.4085Z" fill="#083863"/>
<path d="M26.3748 0.0384445C11.8509 -0.00394389 0.0425028 11.7357 0.000114428 26.2596C-0.042274 40.7836 11.6974 52.592 26.2213 52.6343C40.7452 52.6767 52.5536 40.9371 52.596 26.4132C52.5962 26.3619 52.5962 26.3107 52.596 26.2596C52.5538 11.7956 40.839 0.0806857 26.3748 0.0384445ZM46.829 26.2596C46.8714 37.5985 37.7137 46.8248 26.375 46.8672C15.0361 46.9096 5.80983 37.7519 5.76744 26.4132C5.72505 15.0743 14.8827 5.84801 26.2215 5.80562C26.2727 5.80547 26.3237 5.80547 26.375 5.80562C37.6713 5.80562 46.829 14.9633 46.829 26.2596Z" fill="#D4E1F4"/>
<path d="M62.7462 56.6332C64.4179 58.3131 64.4179 61.0281 62.7462 62.7079C61.0663 64.3795 58.3514 64.3795 56.6716 62.7079L45.9062 52.0195L48.9821 48.9437L52.0579 45.9447L62.7462 56.6332Z" fill="#00ACEA"/>
</g>
<defs>
<clipPath id="clip0">
<rect width="64" height="64" fill="white"/>
</clipPath>
</defs>
</svg>
