<svg width="16" height="16" viewBox="0 0 16 16" fill="none" xmlns="http://www.w3.org/2000/svg">
<path d="M7.46673 1.33333C6.20197 1.33327 4.98829 1.83238 4.08949 2.7222C3.19068 3.61202 2.6794 4.82061 2.66675 6.08531C2.66675 9.3733 6.89673 13.0333 7.07673 13.1893C7.18541 13.2822 7.32372 13.3333 7.46673 13.3333C7.60974 13.3333 7.74805 13.2822 7.85673 13.1893C8.06673 13.0333 12.2667 9.3733 12.2667 6.08531C12.2541 4.82061 11.7428 3.61202 10.844 2.7222C9.94517 1.83238 8.73149 1.33327 7.46673 1.33333ZM7.46673 7.93331C7.05139 7.93331 6.64538 7.81014 6.30004 7.57939C5.9547 7.34864 5.68554 7.02067 5.52659 6.63695C5.36765 6.25322 5.32606 5.83098 5.40709 5.42362C5.48812 5.01627 5.68812 4.64208 5.98181 4.34839C6.2755 4.05471 6.64969 3.8547 7.05704 3.77367C7.4644 3.69264 7.88664 3.73423 8.27036 3.89317C8.65409 4.05212 8.98206 4.32128 9.21281 4.66662C9.44356 5.01196 9.56673 5.41797 9.56673 5.83331C9.56673 6.39027 9.34548 6.92441 8.95165 7.31823C8.55783 7.71206 8.02369 7.93331 7.46673 7.93331Z" fill="#ADB3BE"/>
</svg>
